<svg xmlns="http://www.w3.org/2000/svg" viewBox="0 0 489 489" xml:space="preserve"><path fill="#1E3A8A" d="M21.9 265.3h445.3c11.4 0 20.8-9.4 20.8-20.8s-9.4-20.8-20.8-20.8h-14.7C441.8 115.9 354.6 0 244.5 0S47.2 115.8 35.7 223.7H21.9c-11.4 0-20.8 9.4-20.8 20.8s9.3 20.8 20.8 20.8M268.4 43.1v91.2h-54.1V44.5c9.8-2.5 19.9-3.9 30.2-3.9 8.1 0 16.1.9 23.9 2.5m-95.7 20.2V155c0 11.4 9.4 20.8 20.8 20.8h95.7c11.4 0 20.8-9.4 20.8-20.8V59.4c54.6 32.3 94.2 100.7 100.9 164.3H77.3c7.3-61.4 44.2-126.8 95.4-160.4"/><path fill="#F59E0B" d="M468.2 447.4h-48.9l-18.7-31.2 18.7-31.2h48.9c11.4 0 20.8-9.4 20.8-20.8s-9.4-20.8-20.8-20.8h-60.3c-7.3 0-13.5 4.2-17.7 10.4l-24.1 41.6h-243L99 353.8c-4.2-6.2-10.4-10.4-17.7-10.4H20.8C9.4 343.4 0 352.8 0 364.2S9.4 385 20.8 385h48.9l18.7 31.2-18.7 31.2H20.8C9.4 447.4 0 456.8 0 468.2S9.4 489 20.8 489h60.3c7.3 0 13.5-4.2 17.7-10.4l24.1-41.6h243l24.1 41.6c4.2 6.2 10.4 10.4 17.7 10.4H468c11.4 0 20.8-9.4 20.8-20.8s-9.2-20.8-20.6-20.8"/></svg>